<svg version="1.1" id="Layer_1" xmlns="http://www.w3.org/2000/svg" xmlns:xlink="http://www.w3.org/1999/xlink" x="0px" y="0px"
	 width="100%" viewBox="0 0 1024 960"    xml:space="preserve">
<path fill="black" opacity="1.000000" stroke="none" 
	d="
M731.945190,420.893433 
	C744.611877,420.713562 743.109741,421.132690 739.075134,430.872040 
	C723.713745,467.953644 708.290283,505.009857 693.081116,542.153809 
	C691.278748,546.555603 688.827332,548.305115 684.117737,548.056213 
	C677.635254,547.713562 671.119690,547.825806 664.623535,547.973450 
	C660.610901,548.064636 658.315857,546.575989 656.726196,542.698486 
	C641.623535,505.861237 626.342285,469.097198 611.104797,432.315277 
	C610.474365,430.793488 609.769104,429.302673 608.047791,427.877380 
	C608.047791,434.043030 607.775879,440.224640 608.135681,446.369232 
	C608.412964,451.105225 606.569092,452.622650 602.068359,452.342438 
	C597.585388,452.063324 593.046692,452.565125 588.579285,452.180481 
	C583.576233,451.749756 581.965332,453.424225 582.011047,458.579254 
	C582.250366,485.576538 582.119629,512.577087 582.118896,539.576477 
	C582.118652,548.065063 582.120605,548.068542 573.457825,548.062500 
	C566.458008,548.057617 559.450867,547.845703 552.461060,548.105347 
	C548.113586,548.266907 546.653748,546.749878 546.678589,542.356506 
	C546.834961,514.691284 546.765991,487.024719 546.755188,459.358612 
	C546.752441,452.289215 546.725464,452.281830 539.476746,452.254272 
	C534.810242,452.236542 530.140808,452.142883 525.478027,452.274109 
	C522.026184,452.371246 520.708679,450.855316 520.767029,447.478943 
	C520.885132,440.647827 521.012512,433.804565 520.731445,426.983002 
	C520.537292,422.271759 522.547119,420.979034 526.954895,420.997803 
	C552.953552,421.108551 578.953186,421.029022 604.952454,420.997864 
	C616.118042,420.984467 627.287109,421.085144 638.447388,420.823151 
	C642.789612,420.721161 644.849060,422.229401 646.417664,426.414215 
	C655.124573,449.644012 664.192871,472.738464 673.173828,495.865143 
	C673.693481,497.203400 673.916077,498.803375 675.909363,499.844818 
	C678.457886,493.275391 681.026550,486.822998 683.469971,480.323547 
	C690.326599,462.084778 697.210938,443.855530 703.889282,425.551361 
	C705.206665,421.940613 707.260315,420.714600 710.958923,420.831696 
	C717.785095,421.047729 724.622925,420.893280 731.945190,420.893433 
z"/>
<path fill="black" opacity="1.000000" stroke="none" 
	d="
M420.872681,464.000000 
	C420.874329,451.172394 420.882202,438.844818 420.872833,426.517212 
	C420.870697,423.696259 420.975922,420.914612 424.846558,420.979675 
	C443.649628,421.295685 462.510315,419.649323 481.246124,421.848480 
	C494.269775,423.377167 504.528534,429.732086 508.095123,443.053650 
	C511.683411,456.456329 509.141602,468.537720 497.067535,477.217346 
	C496.561188,477.581360 496.194580,478.139771 495.393341,479.008118 
	C499.385742,481.219513 503.554382,482.505402 506.945740,485.159485 
	C519.883545,495.284821 522.247803,517.074341 512.049988,531.780151 
	C505.478088,541.257202 495.787842,545.749878 484.990631,546.986450 
	C465.265808,549.245361 445.390076,547.619690 425.580475,547.876953 
	C421.049469,547.935791 420.786530,544.962891 420.796906,541.464172 
	C420.872955,515.809570 420.858551,490.154755 420.872681,464.000000 
M454.601532,520.442688 
	C461.070892,522.107605 467.610992,522.032593 474.093658,520.790161 
	C480.823303,519.500488 483.682526,515.846558 483.912323,508.983734 
	C484.155609,501.716156 481.568024,498.025024 474.782043,496.047119 
	C469.395172,494.477051 463.864990,495.418030 458.402740,495.153076 
	C455.060913,494.990967 454.080170,496.617950 454.158417,499.704285 
	C454.326996,506.354065 454.297241,513.008850 454.601532,520.442688 
M462.290833,446.450867 
	C454.208588,446.556671 454.208679,446.556671 454.221924,454.486359 
	C454.224152,455.817566 454.226715,457.148773 454.227325,458.479980 
	C454.232513,469.990479 454.277069,470.030396 465.975494,468.964905 
	C472.487793,468.371735 476.430206,464.292969 476.623596,457.948578 
	C476.798920,452.196472 473.317566,448.233215 467.074249,447.104797 
	C465.764984,446.868164 464.443787,446.697571 462.290833,446.450867 
z"/>
<path fill="black" opacity="1.000000" stroke="none" 
	d="
M320.829895,447.153137 
	C318.559387,443.621552 315.740906,443.163544 312.401398,444.649414 
	C312.097168,444.784760 311.801239,444.939026 311.495575,445.070862 
	C298.010986,450.885864 296.979889,450.481903 291.017487,437.125671 
	C288.371429,431.198425 285.620270,425.316589 283.067627,419.349609 
	C280.277527,412.827576 281.764771,408.873291 288.159485,405.982025 
	C307.265625,397.343567 326.382507,388.727600 345.553772,380.235077 
	C353.582275,376.678619 356.750641,378.100616 360.384155,386.236847 
	C363.505859,393.226959 366.689545,400.189514 369.787018,407.190277 
	C372.980255,414.407562 371.700287,417.960388 364.807953,421.321442 
	C355.130188,426.040802 355.198364,426.026062 357.494537,436.640503 
	C362.592468,460.206848 367.598175,483.793121 372.692413,507.360291 
	C373.261047,509.990936 373.572784,512.297119 370.510986,513.636841 
	C367.415466,514.991272 365.911346,513.096313 364.424744,510.920135 
	C349.967194,489.757111 335.496216,468.603241 320.829895,447.153137 
z"/>
<path fill="black" opacity="1.000000" stroke="none" 
	d="
M332.747559,490.002991 
	C332.748077,484.270203 332.748077,479.036682 332.748077,473.931213 
	C335.638519,473.444794 336.111633,475.171661 336.885101,476.301605 
	C345.632263,489.079651 354.386841,501.853485 362.998810,514.722534 
	C364.635162,517.167786 366.162323,518.189941 369.397186,518.066467 
	C380.041809,517.660278 390.710480,517.914490 401.369171,517.827087 
	C404.730988,517.799500 406.228973,519.261719 406.198730,522.626648 
	C406.140320,529.121582 406.027069,535.625488 406.297150,542.110657 
	C406.480133,546.504944 404.671234,547.988525 400.444824,547.961731 
	C382.290741,547.846436 364.135529,547.912354 345.980713,547.908630 
	C343.648987,547.908142 341.313965,547.802612 338.986237,547.893738 
	C334.466827,548.070679 332.553619,546.397827 332.634521,541.467529 
	C332.913300,524.483093 332.745056,507.491302 332.747559,490.002991 
z"/>
<path fill="#ff4721" opacity="1.000000" stroke="none" 
	d="
M706.973511,414.906128 
	C696.739502,438.172791 686.653625,461.088165 676.567749,484.003510 
	C675.880432,484.003540 675.193115,484.003540 674.505798,484.003571 
	C660.738403,452.958893 646.971069,421.914215 633.203735,390.869537 
	C633.778198,390.487427 634.352661,390.105286 634.927124,389.723145 
	C647.207886,404.723114 659.488708,419.723083 672.354980,435.438171 
	C689.789001,416.368927 704.432495,395.708649 721.288574,376.987915 
	C721.850525,377.321259 722.412476,377.654602 722.974487,377.987946 
	C717.690186,390.176910 712.405945,402.365845 706.973511,414.906128 
z"/>
<path fill="#ff4721" opacity="1.000000" stroke="none" 
	d="
M332.386108,361.652283 
	C337.424652,368.029205 337.384460,368.345093 330.198334,371.614105 
	C318.420197,376.972046 306.566681,382.165924 294.828430,387.609009 
	C290.941895,389.411224 289.259186,388.685974 288.350555,384.332672 
	C286.090820,373.506256 290.879181,363.195923 301.419617,357.216522 
	C311.531128,351.480469 323.161865,353.061279 332.386108,361.652283 
z"/>
<path fill="#000000" opacity="1.000000" stroke="none" 
	d="
M547.877319,572.263428 
	C546.746399,571.126892 546.513550,569.541626 544.808594,569.356445 
	C543.581787,570.948975 544.257263,572.841675 544.116455,574.573486 
	C543.922363,576.961914 542.950500,578.279480 540.419373,578.249207 
	C538.172424,578.222351 536.960144,577.102234 536.934509,574.918518 
	C536.872009,569.597290 536.889099,564.274658 536.933289,558.953064 
	C536.944824,557.559875 537.387817,556.243347 538.967896,555.906494 
	C541.162598,555.438782 543.308350,555.479187 544.926208,557.383911 
	C547.250916,560.120789 549.543640,562.884827 552.064209,565.892822 
	C553.227783,563.228577 552.517334,560.889343 552.780884,558.643494 
	C553.018311,556.621033 554.051270,555.707764 556.068848,555.757507 
	C558.065369,555.806702 559.229858,556.734497 559.243347,558.765991 
	C559.279785,564.254395 559.452454,569.753174 559.179382,575.228210 
	C559.017517,578.472473 554.695190,579.585022 551.911499,577.125916 
	C550.436829,575.823242 549.357605,574.072937 547.877319,572.263428 
z"/>
<path fill="#000000" opacity="1.000000" stroke="none" 
	d="
M439.650879,579.079163 
	C430.753387,578.942505 425.444519,573.872986 425.899292,566.382935 
	C426.332367,559.250671 431.931000,554.323792 438.963684,554.890808 
	C440.818878,555.040344 442.653351,555.430115 444.112244,556.597046 
	C445.583191,557.773621 448.199249,558.815857 447.028137,561.153259 
	C445.830505,563.543518 443.521210,563.511536 440.982788,562.386292 
	C435.969543,560.164185 432.732574,562.616638 433.289734,567.933105 
	C433.730804,572.142334 436.269409,573.398621 441.011353,571.362488 
	C438.958405,570.092285 436.138458,568.585449 438.087341,566.201721 
	C440.327972,563.461182 443.985321,564.821838 447.022797,565.064880 
	C449.544189,565.266785 449.409088,567.476074 449.238220,569.324646 
	C448.720032,574.932007 445.354706,577.909119 439.650879,579.079163 
z"/>
<path fill="#000000" opacity="1.000000" stroke="none" 
	d="
M593.694885,573.795410 
	C593.682068,568.837097 593.734558,564.354675 593.662903,559.874329 
	C593.616272,556.955200 594.894958,555.646606 597.840332,555.660034 
	C603.315430,555.684998 609.051758,554.907959 612.438171,560.752747 
	C614.896851,564.996216 614.836670,569.348083 612.308289,573.515747 
	C608.802979,579.293457 602.983398,578.222717 597.559814,578.266174 
	C594.826233,578.288086 593.628906,576.917786 593.694885,573.795410 
M605.954346,570.119751 
	C606.761719,568.987793 606.869080,567.691040 606.807129,566.366699 
	C606.692810,563.924683 605.504089,562.060364 603.021912,562.085754 
	C600.308655,562.113586 600.983521,564.635559 600.958801,566.254211 
	C600.930237,568.128601 600.229126,570.138550 601.553345,572.060852 
	C603.080811,572.184937 604.419067,571.806885 605.954346,570.119751 
z"/>
<path fill="#000000" opacity="1.000000" stroke="none" 
	d="
M379.646576,578.760010 
	C375.021484,577.550659 372.802551,574.732605 372.515350,570.449402 
	C372.282623,566.979187 372.150726,563.494873 372.167938,560.017761 
	C372.179321,557.722839 372.784271,555.704285 375.777924,555.694580 
	C378.796967,555.684814 379.282806,557.591858 379.279816,559.988647 
	C379.276550,562.645752 379.291016,565.302917 379.321564,567.959839 
	C379.346222,570.105774 379.825714,572.228333 382.390930,572.251465 
	C384.832611,572.273560 385.691956,570.387512 385.706757,568.126953 
	C385.726349,565.137817 385.746277,562.148621 385.761017,559.159485 
	C385.771271,557.080200 386.405029,555.603577 388.855743,555.570312 
	C391.235504,555.538025 392.751984,556.537354 392.867249,558.969177 
	C393.071411,563.275330 393.454712,567.619385 392.531097,571.876160 
	C391.390564,577.132690 387.280304,579.354614 379.646576,578.760010 
z"/>
<path fill="black" opacity="1.000000" stroke="none" 
	d="
M482.464264,572.502319 
	C484.121979,567.918457 485.705750,563.721069 487.124268,559.468445 
	C487.955963,556.974976 489.301422,555.588257 492.130096,555.576294 
	C495.091705,555.563660 496.669922,556.839844 497.597900,559.590759 
	C499.136169,564.150879 500.975342,568.608765 502.586273,573.145691 
	C503.152618,574.740601 504.646118,576.757690 502.251129,577.912476 
	C500.445312,578.783203 498.176636,578.763855 496.713837,577.032715 
	C493.661957,573.420959 490.881042,573.215576 487.790527,577.002014 
	C486.350586,578.766174 484.044403,578.817688 482.306152,577.750000 
	C480.128693,576.412537 481.890137,574.515869 482.464264,572.502319 
z"/>
<path fill="black" opacity="1.000000" stroke="none" 
	d="
M657.003662,555.656128 
	C660.858826,555.245422 662.049377,557.707947 663.022217,560.218933 
	C664.697571,564.543030 666.234985,568.921387 667.779297,573.294922 
	C668.307434,574.790771 669.571472,576.636230 667.683167,577.763123 
	C665.963074,578.789612 663.634216,578.911133 662.145508,577.249695 
	C658.788391,573.503235 655.852966,572.908569 652.513550,577.338684 
	C651.365051,578.862366 649.070068,578.692749 647.401245,577.855286 
	C645.260315,576.780884 646.495789,574.914612 647.003845,573.483154 
	C648.776733,568.487976 650.765198,563.569397 652.543335,558.575989 
	C653.259155,556.566040 654.474426,555.577209 657.003662,555.656128 
z"/>
<path fill="black" opacity="1.000000" stroke="none" 
	d="
M364.083862,453.110779 
	C362.468292,445.628479 361.100739,438.451141 359.426422,431.346100 
	C358.548431,427.620422 360.321564,425.824402 363.459778,425.328827 
	C367.547852,424.683258 366.878906,428.124756 366.923065,430.379089 
	C367.059570,437.352142 367.016937,444.331329 366.877045,451.304779 
	C366.850464,452.629730 367.414734,455.667999 364.083862,453.110779 
z"/>
</svg>
