<?xml version="1.0" encoding="UTF-8" standalone="no" ?>
<!DOCTYPE svg PUBLIC "-//W3C//DTD SVG 1.1//EN" "http://www.w3.org/Graphics/SVG/1.1/DTD/svg11.dtd">
<svg xmlns="http://www.w3.org/2000/svg" xmlns:xlink="http://www.w3.org/1999/xlink" version="1.1" width="1280" height="1024" viewBox="0 0 1280 1024" xml:space="preserve">
<desc>Created with Fabric.js 4.4.0</desc>
<defs>
</defs>
<g transform="matrix(1 0 0 1 640 512)" id="background-logo"  >
<rect style="stroke: none; stroke-width: 0; stroke-dasharray: none; stroke-linecap: butt; stroke-dashoffset: 0; stroke-linejoin: miter; stroke-miterlimit: 4; fill: rgb(255,255,255); fill-rule: nonzero; opacity: 1;"  paint-order="stroke"  x="-640" y="-512" rx="0" ry="0" width="1280" height="1024" />
</g>
<g transform="matrix(1.9211538461538462 0 0 1.9211538461538462 640 365.59292863016344)" id="logo-logo"  >
<g style=""  paint-order="stroke"   >
		<g transform="matrix(0.354445620223367 0 0 -0.35444562022336695 14.473692331387042 -34.615300035086165)"  >
<path style="stroke: none; stroke-width: 1; stroke-dasharray: none; stroke-linecap: butt; stroke-dashoffset: 0; stroke-linejoin: miter; stroke-miterlimit: 10; fill: rgb(238,78,28); fill-rule: evenodd; opacity: 1;"  paint-order="stroke"  transform=" translate(-6161.525, -8268.315)" d="M 6031.78 8235.15 L 6291.2699999999995 8274.94 L 6291.2699999999995 8301.480000000001 L 6031.78 8261.660000000002 L 6031.78 8235.150000000001" stroke-linecap="round" />
</g>
		<g transform="matrix(0.354445620223367 0 0 -0.35444562022336695 0 2.6544217457466743)"  >
<path style="stroke: none; stroke-width: 1; stroke-dasharray: none; stroke-linecap: butt; stroke-dashoffset: 0; stroke-linejoin: miter; stroke-miterlimit: 10; fill: rgb(238,78,28); fill-rule: evenodd; opacity: 1;"  paint-order="stroke"  transform=" translate(-6120.689999999999, -8163.165000000001)" d="M 6382.7 8434.18 L 6382.7 8018.320000000001 C 6382.7 7968.540000000001 6344.97 7932.6900000000005 6296.179999999999 7932.6900000000005 C 6247.409999999999 7932.6900000000005 6209.639999999999 7969.6900000000005 6209.639999999999 8013.580000000001 C 6209.639999999999 8057.470000000001 6245.719999999999 8091.930000000001 6291.2699999999995 8094.330000000001 L 6291.2699999999995 8219.630000000001 L 6031.78 8179.820000000001 L 6031.78 8000.76 C 6031.78 7950.96 5994.07 7915.1 5945.2699999999995 7915.1 C 5896.48 7915.1 5858.709999999999 7952.110000000001 5858.709999999999 7996.01 C 5858.709999999999 8039.91 5894.819999999999 8074.38 5940.3099999999995 8076.77 L 5940.3099999999995 8377.16 L 6016.129999999999 8448.23 L 6053.759999999999 8364.91 L 6104.799999999999 8481.84 L 6143.7699999999995 8378.35 L 6216.36 8479.130000000001 L 6249.929999999999 8376.660000000002 L 6291.499999999999 8499.29 C 6240.199999999999 8525.390000000001 6182.189999999999 8540.2 6120.709999999999 8540.2 C 5912.489999999999 8540.2 5743.639999999999 8371.390000000001 5743.639999999999 8163.160000000001 C 5743.639999999999 7954.930000000001 5912.49 7786.130000000001 6120.709999999999 7786.130000000001 C 6328.949999999999 7786.130000000001 6497.739999999999 7954.930000000001 6497.739999999999 8163.160000000001 C 6497.739999999999 8269.570000000002 6453.5999999999985 8365.630000000001 6382.699999999999 8434.18" stroke-linecap="round" />
</g>
		<g transform="matrix(0.354445620223367 0 0 -0.35444562022336695 76.70508665280829 -114.84886614315008)"  >
<path style="stroke: none; stroke-width: 1; stroke-dasharray: none; stroke-linecap: butt; stroke-dashoffset: 0; stroke-linejoin: miter; stroke-miterlimit: 10; fill: rgb(238,78,28); fill-rule: evenodd; opacity: 1;"  paint-order="stroke"  transform=" translate(-6337.099999999999, -8494.68)" d="M 6382.7 8555.18 L 6310.429999999999 8555.18 L 6291.499999999999 8499.29 C 6325.129999999999 8482.160000000002 6355.829999999999 8460.17 6382.699999999999 8434.18 L 6382.699999999999 8555.18" stroke-linecap="round" />
</g>
</g>
</g>
<g transform="matrix(1.9211538461538462 0 0 1.9211538461538462 638.3902081580529 740.8774029395815)" id="text-logo-path-group"  >
<g style=""  paint-order="stroke"   >
		<g transform="matrix(1.0000000000000002 0 0 1 0 0)" id="text-logo-path-0"  >
<path style="stroke: none; stroke-width: 1; stroke-dasharray: none; stroke-linecap: butt; stroke-dashoffset: 0; stroke-linejoin: miter; stroke-miterlimit: 4; fill: rgb(236,76,28); fill-rule: nonzero; opacity: 1;"  paint-order="stroke"  transform=" translate(-307.24500000000006, 26.735)" d="M 2.04 -2.67 L 2.04 -2.67 L 2.04 -50.65 Q 2.45 -53.33 4.71 -53.33 L 4.71 -53.33 L 4.71 -53.47 L 5.42 -53.33 L 12.58 -53.33 L 14.14 -53.47 Q 26.13 -53.47 34.96 -43.05 L 34.96 -43.05 Q 40.6 -35.74 40.6 -26.46 L 40.6 -26.46 Q 40.6 -13.69 29.35 -4.94 L 29.35 -4.94 Q 22.23 0 14.29 0 L 14.29 0 L 4.71 0 Q 2.04 -0.48 2.04 -2.67 Z M 7.53 -47.98 L 7.53 -5.49 L 13.58 -5.49 Q 26.98 -5.49 33.44 -18.44 L 33.44 -18.44 Q 35.11 -22.86 35.11 -26.87 L 35.11 -26.87 Q 35.11 -36.55 26.53 -43.75 L 26.53 -43.75 Q 21.23 -47.98 10.76 -47.98 L 10.76 -47.98 L 7.53 -47.98 Z M 46.05 -16.63 L 46.05 -16.63 Q 46.65 -19.3 48.46 -19.3 L 48.46 -19.3 L 49.02 -19.3 Q 51.69 -19.3 51.69 -14.92 L 51.69 -14.92 Q 51.92 -11.88 55.37 -8.16 L 55.37 -8.16 Q 58.74 -5.49 62.68 -5.49 L 62.68 -5.49 Q 70.51 -5.49 73.4 -13.66 L 73.4 -13.66 Q 73.81 -15.14 73.81 -16.63 L 73.81 -16.63 L 73.81 -50.88 Q 74.29 -53.4 76.33 -53.4 L 76.33 -53.4 L 76.78 -53.4 Q 78.82 -53.4 79.3 -50.73 L 79.3 -50.73 L 79.3 -16.48 Q 79.3 -7.61 70.99 -2.26 L 70.99 -2.26 Q 67.09 0 62.97 0 L 62.97 0 L 62.27 0 Q 54.11 0 48.58 -7.9 L 48.58 -7.9 Q 46.05 -12.1 46.05 -16.63 Z M 102.83 -2.82 L 102.83 -2.82 L 102.83 -50.1 Q 103.16 -53.18 105.21 -53.18 L 105.21 -53.18 L 105.76 -53.18 Q 108.29 -52.66 108.29 -50.95 L 108.29 -50.95 L 108.29 -5.46 L 131.18 -5.46 Q 133.45 -5.46 133.85 -2.52 L 133.85 -2.52 Q 133.11 0 131.18 0 L 131.18 0 L 105.5 0 Q 103.35 0 102.83 -2.82 Z M 139.61 -19.93 L 139.61 -19.93 L 139.61 -50.1 Q 139.94 -53.18 141.98 -53.18 L 141.98 -53.18 L 142.54 -53.18 Q 145.06 -52.66 145.06 -50.95 L 145.06 -50.95 L 145.06 -21.04 Q 145.06 -11.39 150.55 -8.13 L 150.55 -8.13 Q 154 -5.46 158.27 -5.46 L 158.27 -5.46 Q 166.47 -5.46 170.63 -13.88 L 170.63 -13.88 Q 171.48 -16.51 171.48 -19.37 L 171.48 -19.37 L 171.48 -50.54 Q 171.93 -53.18 174.01 -53.18 L 174.01 -53.18 L 174.41 -53.18 Q 176.94 -52.7 176.94 -50.65 L 176.94 -50.65 L 176.94 -17.96 Q 176.94 -9.61 168.92 -3.38 L 168.92 -3.38 Q 163.88 0 158.68 0 L 158.68 0 L 157.71 0 Q 148.99 0 142.54 -8.57 L 142.54 -8.57 Q 139.61 -13.17 139.61 -19.93 Z M 182.88 -50.62 L 182.88 -50.62 Q 183.47 -53.29 185.25 -53.29 L 185.25 -53.29 L 185.84 -53.29 Q 188.22 -53.29 188.92 -49.06 L 188.92 -49.06 L 199.31 -12.95 L 199.61 -12.95 Q 210.45 -51.21 211.15 -52.32 L 211.15 -52.32 Q 212.08 -53.29 213.12 -53.29 L 213.12 -53.29 L 213.53 -53.29 Q 216.01 -53.29 216.76 -48.24 L 216.76 -48.24 Q 217.76 -45.5 227.04 -12.8 L 227.04 -12.8 L 227.18 -12.8 L 238.58 -52.03 Q 239.58 -53.29 240.54 -53.29 L 240.54 -53.29 L 241.1 -53.29 Q 243.62 -52.77 243.62 -51.06 L 243.62 -51.06 L 243.62 -50.36 L 229.41 -1.11 Q 228.26 0 227.18 0 L 227.18 0 L 227.04 0 Q 224.4 0 223.66 -5.2 L 223.66 -5.2 Q 214.53 -36.22 213.38 -40.78 L 213.38 -40.78 L 213.27 -40.78 L 201.88 -1.26 Q 200.84 0 199.61 0 L 199.61 0 L 199.05 0 Q 196.75 0 195.94 -5.34 L 195.94 -5.34 Q 183.88 -46.39 182.88 -50.62 Z M 248.82 -26.76 L 248.82 -26.76 Q 248.82 -39.48 260.03 -48.21 L 260.03 -48.21 Q 267.3 -53.25 275.46 -53.25 L 275.46 -53.25 Q 288.93 -53.25 297.99 -40.78 L 297.99 -40.78 Q 302.07 -33.7 302.07 -26.5 L 302.07 -26.5 Q 302.07 -13.17 290.01 -4.34 L 290.01 -4.34 Q 283.18 0 275.72 0 L 275.72 0 L 275.17 0 Q 261.44 0 252.75 -12.77 L 252.75 -12.77 Q 248.82 -19.22 248.82 -26.76 Z M 254.27 -26.35 L 254.27 -26.35 Q 254.27 -16.18 263.25 -9.24 L 263.25 -9.24 Q 268.86 -5.46 275.17 -5.46 L 275.17 -5.46 L 275.87 -5.46 Q 285.82 -5.46 292.68 -14.29 L 292.68 -14.29 Q 296.62 -19.96 296.62 -26.64 L 296.62 -26.64 Q 296.62 -38.11 286.11 -44.83 L 286.11 -44.83 Q 280.92 -47.8 275.46 -47.8 L 275.46 -47.8 Q 264.96 -47.8 258.06 -38.67 L 258.06 -38.67 Q 254.27 -33.21 254.27 -26.35 Z M 308.82 -2.82 L 308.82 -2.82 L 308.82 -50.06 Q 309.16 -53.14 311.2 -53.14 L 311.2 -53.14 L 311.76 -53.14 Q 313.95 -53.14 314.84 -49.5 L 314.84 -49.5 L 332.65 -9.69 Q 333.35 -10.5 345.12 -37.44 L 345.12 -37.44 L 352.02 -52.29 Q 352.84 -53.14 353.84 -53.14 L 353.84 -53.14 L 354.39 -53.14 Q 356.44 -53.14 356.77 -50.06 L 356.77 -50.06 L 356.77 -2.82 Q 356.25 0 354.1 0 L 354.1 0 L 353.95 0 Q 351.31 -0.45 351.31 -2.52 L 351.31 -2.52 L 351.31 -37.44 L 351.17 -37.44 Q 335.47 -1.82 334.91 -0.96 L 334.91 -0.96 Q 333.84 0 332.8 0 L 332.8 0 Q 330.35 0 328.46 -5.9 L 328.46 -5.9 L 314.43 -37.29 L 314.28 -37.29 L 314.28 -2.52 Q 314.28 -0.45 311.64 0 L 311.64 0 L 311.5 0 Q 309.34 0 308.82 -2.82 Z M 363.93 -2.67 L 363.93 -2.67 L 363.93 -50.36 Q 364.34 -53.03 366.6 -53.03 L 366.6 -53.03 L 366.6 -53.14 L 367.27 -53.03 L 375.81 -53.03 L 376.36 -53.14 Q 382.75 -53.14 387.27 -47.13 L 387.27 -47.13 Q 389.54 -43.79 389.54 -39.86 L 389.54 -39.86 L 389.54 -39.45 Q 389.54 -34.66 385.75 -30.36 L 385.75 -30.36 Q 394.84 -25.35 394.84 -15.81 L 394.84 -15.81 Q 394.84 -6.23 384.9 -1.11 L 384.9 -1.11 Q 381.71 0 379.18 0 L 379.18 0 L 366.6 0 Q 363.93 -0.48 363.93 -2.67 Z M 369.39 -26.42 L 369.39 -5.46 L 376.66 -5.46 Q 384.68 -5.46 387.42 -10.06 L 387.42 -10.06 Q 389.24 -12.62 389.24 -15.81 L 389.24 -15.81 L 389.24 -16.07 Q 389.24 -23.6 381 -26.16 L 381 -26.16 L 377.07 -26.42 L 369.39 -26.42 Z M 369.39 -47.57 L 369.39 -31.88 L 374.54 -31.88 Q 381.41 -31.88 383.38 -36.78 L 383.38 -36.78 Q 383.93 -38.19 383.93 -39.6 L 383.93 -39.6 L 383.93 -40 Q 383.93 -45.42 377.63 -47.43 L 377.63 -47.43 L 374.69 -47.57 L 369.39 -47.57 Z M 400.34 -26.76 L 400.34 -26.76 Q 400.34 -39.48 411.54 -48.21 L 411.54 -48.21 Q 418.82 -53.25 426.98 -53.25 L 426.98 -53.25 Q 440.45 -53.25 449.51 -40.78 L 449.51 -40.78 Q 453.59 -33.7 453.59 -26.5 L 453.59 -26.5 Q 453.59 -13.17 441.53 -4.34 L 441.53 -4.34 Q 434.7 0 427.24 0 L 427.24 0 L 426.68 0 Q 412.95 0 404.27 -12.77 L 404.27 -12.77 Q 400.34 -19.22 400.34 -26.76 Z M 405.79 -26.35 L 405.79 -26.35 Q 405.79 -16.18 414.77 -9.24 L 414.77 -9.24 Q 420.38 -5.46 426.68 -5.46 L 426.68 -5.46 L 427.39 -5.46 Q 437.33 -5.46 444.2 -14.29 L 444.2 -14.29 Q 448.13 -19.96 448.13 -26.64 L 448.13 -26.64 Q 448.13 -38.11 437.63 -44.83 L 437.63 -44.83 Q 432.44 -47.8 426.98 -47.8 L 426.98 -47.8 Q 416.48 -47.8 409.58 -38.67 L 409.58 -38.67 Q 405.79 -33.21 405.79 -26.35 Z M 479.01 -2.67 L 479.01 -2.67 L 479.01 -50.36 Q 479.42 -53.03 481.68 -53.03 L 481.68 -53.03 L 481.68 -53.14 L 482.35 -53.03 L 490.88 -53.03 L 491.44 -53.14 Q 497.82 -53.14 502.35 -47.13 L 502.35 -47.13 Q 504.61 -43.79 504.61 -39.86 L 504.61 -39.86 L 504.61 -39.45 Q 504.61 -34.66 500.83 -30.36 L 500.83 -30.36 Q 509.92 -25.35 509.92 -15.81 L 509.92 -15.81 Q 509.92 -6.23 499.97 -1.11 L 499.97 -1.11 Q 496.78 0 494.26 0 L 494.26 0 L 481.68 0 Q 479.01 -0.48 479.01 -2.67 Z M 484.46 -26.42 L 484.46 -5.46 L 491.74 -5.46 Q 499.75 -5.46 502.5 -10.06 L 502.5 -10.06 Q 504.32 -12.62 504.32 -15.81 L 504.32 -15.81 L 504.32 -16.07 Q 504.32 -23.6 496.08 -26.16 L 496.08 -26.16 L 492.14 -26.42 L 484.46 -26.42 Z M 484.46 -47.57 L 484.46 -31.88 L 489.62 -31.88 Q 496.49 -31.88 498.45 -36.78 L 498.45 -36.78 Q 499.01 -38.19 499.01 -39.6 L 499.01 -39.6 L 499.01 -40 Q 499.01 -45.42 492.7 -47.43 L 492.7 -47.43 L 489.77 -47.57 L 484.46 -47.57 Z M 515.41 -26.76 L 515.41 -26.76 Q 515.41 -39.48 526.62 -48.21 L 526.62 -48.21 Q 533.89 -53.25 542.06 -53.25 L 542.06 -53.25 Q 555.53 -53.25 564.58 -40.78 L 564.58 -40.78 Q 568.66 -33.7 568.66 -26.5 L 568.66 -26.5 Q 568.66 -13.17 556.6 -4.34 L 556.6 -4.34 Q 549.78 0 542.32 0 L 542.32 0 L 541.76 0 Q 528.03 0 519.35 -12.77 L 519.35 -12.77 Q 515.41 -19.22 515.41 -26.76 Z M 520.87 -26.35 L 520.87 -26.35 Q 520.87 -16.18 529.85 -9.24 L 529.85 -9.24 Q 535.45 -5.46 541.76 -5.46 L 541.76 -5.46 L 542.46 -5.46 Q 552.41 -5.46 559.28 -14.29 L 559.28 -14.29 Q 563.21 -19.96 563.21 -26.64 L 563.21 -26.64 Q 563.21 -38.11 552.71 -44.83 L 552.71 -44.83 Q 547.51 -47.8 542.06 -47.8 L 542.06 -47.8 Q 531.55 -47.8 524.65 -38.67 L 524.65 -38.67 Q 520.87 -33.21 520.87 -26.35 Z M 574.9 -49.65 L 574.75 -50.51 Q 575.34 -53.18 577.13 -53.18 L 577.13 -53.18 L 577.72 -53.18 Q 579.54 -53.18 580.65 -50.51 L 580.65 -50.51 L 593.45 -31.36 L 593.6 -31.36 Q 607.41 -52.21 607.96 -52.62 L 607.96 -52.62 Q 608.71 -53.18 609.22 -53.18 L 609.22 -53.18 L 610.08 -53.18 Q 611.79 -53.18 612.45 -50.51 L 612.45 -50.51 Q 612.45 -49.32 607.67 -42.75 L 607.67 -42.75 L 596.27 -25.75 L 596.27 -3.08 Q 595.94 0 593.9 0 L 593.9 0 L 593.3 0 Q 591.49 0 590.78 -2.26 L 590.78 -2.26 L 590.78 -25.31 Q 590.78 -25.83 584.88 -34.62 L 584.88 -34.62 L 574.9 -49.65 Z" stroke-linecap="round" />
</g>
</g>
</g>
</svg>